<?xml version="1.0" encoding="UTF-8"?>
<svg width="752pt" height="752pt" version="1.1" viewBox="0 0 752 752" xmlns="http://www.w3.org/2000/svg">
 <g>
  <path d="m752 376c0 134.33-71.664 258.46-188 325.62-116.34 67.168-259.66 67.168-376 0-116.34-67.164-188-191.29-188-325.62s71.664-258.46 188-325.62c116.34-67.168 259.66-67.168 376 0 116.34 67.164 188 191.29 188 325.62" fill="#fff"/>
  <path d="m213.21 538.79c0 4.0898-3.3125 7.4023-7.3984 7.4023-4.0859 0-7.3984-3.3125-7.3984-7.4023 0-4.0859 3.3125-7.3984 7.3984-7.3984 4.0859 0 7.3984 3.3125 7.3984 7.3984" fill="rgb(6 182 212)"/>
  <path d="m255.7 321.46c4.0742 0.09375 7.4648-3.1016 7.6172-7.168l0.89453-29.598v-0.003906c0.09375-3.1797 2.2109-5.9453 5.2617-6.8672l25.16-7.5469-0.003906-18.32-34.977 11.93c-2.8516 0.97266-5.3359 2.793-7.125 5.2148-1.7891 2.4258-2.7969 5.3359-2.8867 8.3477l-1.0938 36.406c-0.11719 4.082 3.0938 7.4844 7.1758 7.6055z" fill="rgb(6 182 212)"/>
  <path d="m239.16 452.34 4.0273-12.078-0.003906 0.003907c0.82031-2.4688 2.8789-4.3281 5.418-4.8906l63.496-14.105 19.387-32.316-24.352-31.301-5.1797 41.438v0.003906c-0.36328 2.9062-2.4102 5.3281-5.2188 6.1719l-68.727 20.645v31.492h4.1367c3.1836-0.003907 6.0078-2.043 7.0156-5.0625z" fill="rgb(6 182 212)"/>
  <path d="m303.37 531.39h-17.523c1.8164 4.7656 1.8164 10.035 0 14.801h17.523c-1.8164-4.7656-1.8164-10.035 0-14.801z" fill="rgb(6 182 212)"/>
  <path d="m272.41 538.79c0 4.0898-3.3125 7.4023-7.3984 7.4023-4.0898 0-7.4023-3.3125-7.4023-7.4023 0-4.0859 3.3125-7.3984 7.4023-7.3984 4.0859 0 7.3984 3.3125 7.3984 7.3984" fill="rgb(6 182 212)"/>
  <path d="m244.17 531.39h-17.523c1.8164 4.7656 1.8164 10.035 0 14.801h17.523c-1.8164-4.7656-1.8164-10.035 0-14.801z" fill="rgb(6 182 212)"/>
  <path d="m467.59 301.46 93.949-59.109 7.8867 12.531-93.949 59.109z" fill="rgb(6 182 212)"/>
  <path d="m361.2 198.41c0 16.344-13.254 29.598-29.602 29.598-16.344 0-29.598-13.254-29.598-29.598 0-16.348 13.254-29.602 29.598-29.602 16.348 0 29.602 13.254 29.602 29.602" fill="rgb(6 182 212)"/>
  <path d="m553.59 446.9v-164.57l-22.367 14.082-20.285 155.51z" fill="rgb(6 182 212)"/>
  <path d="m398.2 487v-3.7461 0.003906c-0.015625-3.2773-2.168-6.1562-5.3047-7.0977l-14.438-4.2617c-3.5508-1.0508-5.7773-4.5625-5.2148-8.2227l9.8867-64.273-28.547-57.09-0.003906 0.003906c-0.51172-1.0312-0.77734-2.1602-0.77734-3.3086v-22.199h-7.3984c-3.0859 0.003906-5.8477-1.9102-6.9336-4.7969l-19.793-52.789c-1.7656-4.8008-1.8906-10.051-0.35547-14.934-3.3984 0.74219-6.7148 1.8008-9.918 3.1602v89.02l50.242 64.594h0.003907c1.0078 1.2969 1.5547 2.8984 1.5547 4.543v81.395z" fill="rgb(6 182 212)"/>
  <path d="m342.49 242.81h-1.1836c-3.1406-0.003906-6.0078 1.7734-7.3984 4.5859-1.0391 2.0742-1.1641 4.4883-0.34766 6.6602l16.199 43.176h-0.003906c1.082 2.8906 3.8438 4.8008 6.9258 4.8047h41.52c4.0898 0 7.4023-3.3125 7.4023-7.4023 0-4.0859-3.3125-7.3984-7.4023-7.3984h-29.598c-3.1875 0-6.0156-2.0391-7.0234-5.0625l-11.219-33.66h0.003906c-1.1172-3.4062-4.293-5.707-7.875-5.7031z" fill="rgb(6 182 212)"/>
  <path d="m509.2 538.79c0 4.0898-3.3125 7.4023-7.3984 7.4023s-7.3984-3.3125-7.3984-7.4023c0-4.0859 3.3125-7.3984 7.3984-7.3984s7.3984 3.3125 7.3984 7.3984" fill="rgb(6 182 212)"/>
  <path d="m501.8 501.8h-295.99c-13.219 0-25.434 7.0508-32.043 18.5-6.6094 11.445-6.6094 25.551 0 36.996 6.6094 11.449 18.824 18.5 32.043 18.5h295.99c13.219 0 25.434-7.0508 32.043-18.5 6.6055-11.445 6.6055-25.551 0-36.996-6.6094-11.449-18.824-18.5-32.043-18.5zm0 59.199-295.99-0.003906c-7.9297 0-15.262-4.2305-19.227-11.098-3.9648-6.8672-3.9648-15.332 0-22.199 3.9648-6.8672 11.297-11.098 19.227-11.098h295.99c7.9297 0 15.258 4.2305 19.223 11.098 3.9688 6.8672 3.9688 15.332 0 22.199-3.9648 6.8672-11.293 11.098-19.223 11.098z" fill="rgb(6 182 212)"/>
  <path d="m331.6 538.79c0 4.0898-3.3125 7.4023-7.3984 7.4023s-7.3984-3.3125-7.3984-7.4023c0-4.0859 3.3125-7.3984 7.3984-7.3984s7.3984 3.3125 7.3984 7.3984" fill="rgb(6 182 212)"/>
  <path d="m472.2 471.38v15.613h29.598c13.805-0.011719 27.043 5.4883 36.773 15.285 9.7266 9.7969 15.137 23.074 15.023 36.879-0.11328 13.809-5.7344 26.996-15.621 36.633h45.219v-117.47z" fill="rgb(6 182 212)"/>
  <path d="m480.96 531.39h-17.52c1.8164 4.7656 1.8164 10.035 0 14.801h17.523-0.003907c-1.8125-4.7656-1.8125-10.035 0-14.801z" fill="rgb(6 182 212)"/>
  <path d="m362.56 531.39h-17.52c1.8125 4.7656 1.8125 10.035 0 14.801h17.523-0.003906c-1.8164-4.7656-1.8164-10.035 0-14.801z" fill="rgb(6 182 212)"/>
  <path d="m390.8 538.79c0 4.0898-3.3125 7.4023-7.3984 7.4023-4.0898 0-7.4023-3.3125-7.4023-7.4023 0-4.0859 3.3125-7.3984 7.4023-7.3984 4.0859 0 7.3984 3.3125 7.3984 7.3984" fill="rgb(6 182 212)"/>
  <path d="m421.76 531.39h-17.523c1.8164 4.7656 1.8164 10.035 0 14.801h17.523c-1.8164-4.7656-1.8164-10.035 0-14.801z" fill="rgb(6 182 212)"/>
  <path d="m450 538.79c0 4.0898-3.3164 7.4023-7.4023 7.4023-4.0859 0-7.3984-3.3125-7.3984-7.4023 0-4.0859 3.3125-7.3984 7.3984-7.3984 4.0859 0 7.4023 3.3125 7.4023 7.3984" fill="rgb(6 182 212)"/>
 </g>
</svg>
